HIERARCHY
ROOT hip
{
  OFFSET 0 0 0
  CHANNELS 6 Xposition Yposition Zposition Zrotation Yrotation Xrotation
  JOINT abdomen
  {
    OFFSET 0 20.6881 -0.73152
    CHANNELS 3 Zrotation Xrotation Yrotation
    JOINT chest
    {
      OFFSET 0 11.7043 -0.48768
      CHANNELS 3 Zrotation Xrotation Yrotation
      JOINT neck
      {
        OFFSET 0 22.1894 -2.19456
        CHANNELS 3 Zrotation Xrotation Yrotation
        JOINT head
        {
          OFFSET -0.24384 7.07133 1.2192
          CHANNELS 3 Zrotation Xrotation Yrotation
          JOINT leftEye
          {
            OFFSET 4.14528 8.04674 8.04672
            CHANNELS 3 Zrotation Xrotation Yrotation
            End Site
            {
              OFFSET 1 0 0
            }
          }
          JOINT rightEye
          {
            OFFSET -3.6576 8.04674 8.04672
            CHANNELS 3 Zrotation Xrotation Yrotation
            End Site
            {
              OFFSET 1 0 0
            }
          }
        }
      }
      JOINT rCollar
      {
        OFFSET -2.68224 19.2634 -4.8768
        CHANNELS 3 Zrotation Xrotation Yrotation
        JOINT rShldr
        {
          OFFSET -8.77824 -1.95073 1.46304
          CHANNELS 3 Zrotation Xrotation Yrotation
          JOINT rForeArm
          {
            OFFSET -28.1742 -1.7115 0.48768
            CHANNELS 3 Zrotation Xrotation Yrotation
            JOINT rHand
            {
              OFFSET -22.5879 0.773209 7.07136
              CHANNELS 3 Zrotation Xrotation Yrotation
              JOINT rThumb1
              {
                OFFSET -1.2192 -0.487915 3.41376
                CHANNELS 3 Zrotation Xrotation Yrotation
                JOINT rThumb2
                {
                  OFFSET -3.37035 -0.52449 3.41376
                  CHANNELS 3 Zrotation Xrotation Yrotation
                  End Site
                  {
                    OFFSET -1.78271 -1.18214 1.43049
                  }
                }
              }
              JOINT rIndex1
              {
                OFFSET -7.75947 0.938293 5.60832
                CHANNELS 3 Zrotation Xrotation Yrotation
                JOINT rIndex2
                {
                  OFFSET -2.54057 -0.884171 1.56538
                  CHANNELS 3 Zrotation Xrotation Yrotation
                  End Site
                  {
                    OFFSET -1.62519 -0.234802 1.16502
                  }
                }
              }
              JOINT rMid1
              {
                OFFSET -8.24714 1.18213 3.41376
                CHANNELS 3 Zrotation Xrotation Yrotation
                JOINT rMid2
                {
                  OFFSET -3.10165 -0.590103 1.0647
                  CHANNELS 3 Zrotation Xrotation Yrotation
                  End Site
                  {
                    OFFSET -2.48547 -0.328903 0.83742
                  }
                }
              }
              JOINT rRing1
              {
                OFFSET -8.82822 0.546677 1.51678
                CHANNELS 3 Zrotation Xrotation Yrotation
                JOINT rRing2
                {
                  OFFSET -2.60934 -0.819778 -0.0198488
                  CHANNELS 3 Zrotation Xrotation Yrotation
                  End Site
                  {
                    OFFSET -2.33842 -0.294052 0.168128
                  }
                }
              }
              JOINT rPinky1
              {
                OFFSET -8.27202 -0.0477905 -0.4584
                CHANNELS 3 Zrotation Xrotation Yrotation
                JOINT rPinky2
                {
                  OFFSET -1.82734 -0.647385 -0.700984
                  CHANNELS 3 Zrotation Xrotation Yrotation
                  End Site
                  {
                    OFFSET -1.69225 -0.51767 -0.607171
                  }
                }
              }
            }
          }
        }
      }
      JOINT lCollar
      {
        OFFSET 2.68224 19.2634 -4.8768
        CHANNELS 3 Zrotation Xrotation Yrotation
        JOINT lShldr
        {
          OFFSET 8.77824 -1.95073 1.46304
          CHANNELS 3 Zrotation Xrotation Yrotation
          JOINT lForeArm
          {
            OFFSET 28.1742 -1.7115 0.48768
            CHANNELS 3 Zrotation Xrotation Yrotation
            JOINT lHand
            {
              OFFSET 22.5879 0.773209 7.07136
              CHANNELS 3 Zrotation Xrotation Yrotation
              JOINT lThumb1
              {
                OFFSET 1.2192 -0.487915 3.41376
                CHANNELS 3 Zrotation Xrotation Yrotation
                JOINT lThumb2
                {
                  OFFSET 3.37035 -0.52449 3.41376
                  CHANNELS 3 Zrotation Xrotation Yrotation
                  End Site
                  {
                    OFFSET 1.78271 -1.18214 1.43049
                  }
                }
              }
              JOINT lIndex1
              {
                OFFSET 7.75947 0.938293 5.60832
                CHANNELS 3 Zrotation Xrotation Yrotation
                JOINT lIndex2
                {
                  OFFSET 2.54057 -0.884171 1.56538
                  CHANNELS 3 Zrotation Xrotation Yrotation
                  End Site
                  {
                    OFFSET 1.62519 -0.234802 1.16502
                  }
                }
              }
              JOINT lMid1
              {
                OFFSET 8.24714 1.18213 3.41376
                CHANNELS 3 Zrotation Xrotation Yrotation
                JOINT lMid2
                {
                  OFFSET 3.10165 -0.590103 1.0647
                  CHANNELS 3 Zrotation Xrotation Yrotation
                  End Site
                  {
                    OFFSET 2.48547 -0.328903 0.83742
                  }
                }
              }
              JOINT lRing1
              {
                OFFSET 8.82822 0.546677 1.51678
                CHANNELS 3 Zrotation Xrotation Yrotation
                JOINT lRing2
                {
                  OFFSET 2.60934 -0.819778 -0.0198488
                  CHANNELS 3 Zrotation Xrotation Yrotation
                  End Site
                  {
                    OFFSET 2.33842 -0.294052 0.168128
                  }
                }
              }
              JOINT lPinky1
              {
                OFFSET 8.27202 -0.0477905 -0.4584
                CHANNELS 3 Zrotation Xrotation Yrotation
                JOINT lPinky2
                {
                  OFFSET 1.82734 -0.647385 -0.700984
                  CHANNELS 3 Zrotation Xrotation Yrotation
                  End Site
                  {
                    OFFSET 1.69225 -0.51767 -0.607171
                  }
                }
              }
            }
          }
        }
      }
    }
  }
  JOINT rButtock
  {
    OFFSET -8.77824 4.35084 1.2192
    CHANNELS 3 Zrotation Xrotation Yrotation
    JOINT rThigh
    {
      OFFSET 0 -1.70687 -2.19456
      CHANNELS 3 Zrotation Xrotation Yrotation
      JOINT rShin
      {
        OFFSET 0 -36.8199 0.73152
        CHANNELS 3 Zrotation Xrotation Yrotation
        JOINT rFoot
        {
          OFFSET 0.73152 -45.1104 -5.12064
          CHANNELS 3 Zrotation Xrotation Yrotation
          End Site
          {
            OFFSET -1.1221 -3.69964 12.103
          }
        }
      }
    }
  }
  JOINT lButtock
  {
    OFFSET 8.77824 4.35084 1.2192
    CHANNELS 3 Zrotation Xrotation Yrotation
    JOINT lThigh
    {
      OFFSET 0 -1.70687 -2.19456
      CHANNELS 3 Zrotation Xrotation Yrotation
      JOINT lShin
      {
        OFFSET 0 -36.8199 0.73152
        CHANNELS 3 Zrotation Xrotation Yrotation
        JOINT lFoot
        {
          OFFSET -0.73152 -45.1104 -5.12064
          CHANNELS 3 Zrotation Xrotation Yrotation
          End Site
          {
            OFFSET 1.1221 -3.69964 12.103
          }
        }
      }
    }
  }
}
MOTION
Frames:	4
Frame Time:	0.03333
31.2694 59.342299999999994 -0.810921 -107.36900329589844 80.30101013183594 -108.17597961425781 7.308070182800293 32.44719696044922 -9.130790710449219 10.39319896697998 -11.867501258850098 -0.5676338076591492 -12.634998321533203 20.86749839782715 -17.764501571655273 17.247499465942383 -24.87580108642578 -31.647403717041016 -0.0 0.0 -0.0 -0.0 0.0 -0.0 4.3105499909507766e-14 4.219370079022733e-13 -1.330859928554487e-13 33.52719497680664 -0.6055408120155334 -18.771696090698242 -13.109098434448242 -6.057170867919922 24.2898006439209 -0.2341400533914566 13.68380069732666 1.9606000185012817 -8.190370048843931e-10 2.2506998487159535e-09 -1.5749199722137064e-09 -1.430599860796633e-09 3.822659966346009e-09 -2.711079805095551e-09 -8.190370048843931e-10 2.2506998487159535e-09 -1.574929964220928e-09 7.730909824371338 5.474879741668701 0.4173140823841095 -8.190430000887261e-10 2.2506998487159535e-09 -1.5749199722137064e-09 2.9055399894714355 0.9651829600334167 0.10290199518203735 -8.190350064829488e-10 2.2506998487159535e-09 -1.5749199722137064e-09 10.27859878540039 0.73180091381073 0.025912316516041756 -8.190479405811857e-10 2.2506998487159535e-09 -1.5749199722137064e-09 2.221669912338257 -0.733487069606781 -0.208919957280159 4.297099785374736e-14 4.2195302698937176e-13 -1.3325999375160547e-13 -122.19100189208984 34.53570556640625 56.79960250854492 27.87270164489746 -41.02629470825195 -85.7916030883789 27.384498596191406 -76.08202362060547 34.58210372924805 -5.723769791465827e-10 -8.920419264368817e-11 4.523899865827019e-10 -1.0150998930313904e-09 -1.0709499953520663e-10 7.390890122138671e-10 -5.723839735516378e-10 -8.920900129716358e-11 4.5240000634549915e-10 -7.730909824371338 5.474879741668701 -0.4173140823841095 -5.723769791465827e-10 -8.921289401664367e-11 4.5239398338559056e-10 -2.9055399894714355 0.9651829600334167 -0.10290199518203735 -5.723820306613447e-10 -8.921159644348364e-11 4.523959817870349e-10 -10.27859878540039 0.73180091381073 -0.025912316516041756 -5.723699292303763e-10 -8.921059724276148e-11 4.523899865827019e-10 -2.221669912338257 -0.733487069606781 0.208919957280159 -2.0321699480147914e-16 0.0 -3.8825099822884138e-19 -32.6171989440918 -42.022499084472656 -18.410400390625 -3.051409959793091 74.98619842529297 3.5169997215270996 -5.48940896987915 -19.15049934387207 -9.54362964630127 2.0321699480147914e-16 0.0 3.8825099822884138e-19 58.939308166503906 -47.02079772949219 47.907405853271484 170.7030029296875 82.48351287841797 -171.0290069580078 8.376211166381836 -27.958499908447266 11.048399925231934
31.0383 58.027 -0.420889 -88.5219955444336 83.68400573730469 -89.67800903320312 4.013880252838135 33.58259963989258 -6.94581937789917 9.724310874938965 -12.218300819396973 -0.2724468410015106 -12.325599670410156 21.071998596191406 -17.372499465942383 17.149503707885742 -25.495899200439453 -30.861299514770508 -0.0 0.0 -0.0 -0.0 0.0 -0.0 2.1516900132294292e-14 -1.6479700904684785e-13 1.1231300279721228e-14 33.88230895996094 -2.3198611736297607 -17.4064998626709 -13.973999977111816 -6.933529376983643 25.501800537109375 -0.2783220112323761 14.849600791931152 2.1354801654815674 -9.069159867536314e-10 -8.150409791518598e-10 -6.000560048846637e-10 -1.5736300040813944e-09 -1.486419987095644e-09 -1.0234398883923745e-09 -9.069119344395915e-10 -8.150269348305983e-10 -6.000689389829006e-10 7.730909824371338 5.474879741668701 0.4173140823841095 -9.069199280453688e-10 -8.150259356298761e-10 -6.000560048846637e-10 2.9055399894714355 0.9651829600334167 0.10290199518203735 -9.069119344395915e-10 -8.15041978352582e-10 -6.000549501727903e-10 10.27859878540039 0.73180091381073 0.025912316516041756 -9.069250350712821e-10 -8.150389807504155e-10 -6.000500096803307e-10 2.221669912338257 -0.733487069606781 -0.208919957280159 2.142190030506204e-14 -1.6478799661628907e-13 1.1032499105901802e-14 -121.27999114990234 33.09479904174805 54.757598876953125 27.8976993560791 -40.92239761352539 -85.59109497070312 27.448299407958984 -76.11540985107422 34.649497985839844 -2.8327901135938305e-10 -9.7652601283027e-11 5.675159786555639e-10 -5.211770459645493e-10 -1.5370300865402697e-10 9.503000608646062e-10 -2.832899748117512e-10 -9.766170511182892e-11 5.67528968264952e-10 -7.730909824371338 5.474879741668701 -0.4173140823841095 -2.832830081622717e-10 -9.766739500483013e-11 5.675189762577304e-10 -2.9055399894714355 0.9651829600334167 -0.10290199518203735 -2.832849788081404e-10 -9.766529945887115e-11 5.675219738598969e-10 -10.27859878540039 0.73180091381073 -0.025912316516041756 -2.832739876001966e-10 -9.766449454717829e-11 5.675159786555639e-10 -2.221669912338257 -0.733487069606781 0.208919957280159 -2.0321699480147914e-16 0.0 -3.8825099822884138e-19 -34.60129928588867 -46.649696350097656 -16.04619789123535 -4.204870223999023 78.28092956542969 4.612599849700928 -4.750569820404053 -19.225202560424805 -7.904369354248047 2.0321699480147914e-16 0.0 3.8825099822884138e-19 59.34090042114258 -45.59020233154297 50.693199157714844 171.95999145507812 81.17240142822266 -172.36300659179688 8.826469421386719 -27.968002319335938 11.612399101257324
31.022000000000002 57.4791 0.103401 -53.61200714111328 84.78199005126953 -55.72701644897461 1.3960500955581665 34.64300537109375 -5.571130275726318 9.503020286560059 -12.576800346374512 -0.10278783738613129 -11.694098472595215 21.397602081298828 -17.546199798583984 17.165800094604492 -24.419795989990234 -31.215097427368164 -0.0 0.0 -0.0 -0.0 0.0 -0.0 -4.7125897747937046e-14 2.8403700832319023e-13 -1.1262399941412617e-14 34.264801025390625 -3.252580404281616 -13.763298034667969 -13.79909896850586 -6.7932305335998535 25.15130043029785 -0.21214798092842102 13.091900825500488 1.8723400831222534 5.345680009760656e-10 -3.204210008433961e-09 8.041149412996162e-10 9.324769845164838e-10 -5.518939527604516e-09 1.3865699699522338e-09 5.345709985782321e-10 -3.204210008433961e-09 8.041069476938389e-10 7.730909824371338 5.474879741668701 0.4173140823841095 5.345650033738991e-10 -3.2041997943821343e-09 8.041209365039492e-10 2.9055399894714355 0.9651829600334167 0.10290199518203735 5.345739961803986e-10 -3.2042200004411825e-09 8.041189936136561e-10 10.27859878540039 0.73180091381073 0.025912316516041756 5.345590081695661e-10 -3.204210008433961e-09 8.04129041132029e-10 2.221669912338257 -0.733487069606781 -0.208919957280159 -4.710429840778206e-14 2.840409927661741e-13 -1.1371099679533762e-14 -120.00900268554688 34.2401008605957 53.204593658447266 27.963096618652344 -40.61250686645508 -85.02039337158203 25.4883975982666 -75.38809204101562 32.62709426879883 6.937519447802742e-10 -4.847549445186061e-11 -1.9579898813404384e-10 1.201749921797557e-09 -1.1800299626330002e-10 -2.945000077136939e-10 6.937449503752191e-10 -4.8478498992921004e-11 -1.9578499932393356e-10 -7.730909824371338 5.474879741668701 -0.4173140823841095 6.937510010907033e-10 -4.8482801107141427e-11 -1.9579800281110948e-10 -2.9055399894714355 0.9651829600334167 -0.10290199518203735 6.93749002689259e-10 -4.848129883661123e-11 -1.9579800281110948e-10 -10.27859878540039 0.73180091381073 -0.025912316516041756 6.937569962950363e-10 -4.847949819364317e-11 -1.9580499721616462e-10 -2.221669912338257 -0.733487069606781 0.208919957280159 -2.0321699480147914e-16 0.0 -3.8825099822884138e-19 -34.802894592285156 -49.283103942871094 -14.461602210998535 -5.22605037689209 80.1676025390625 5.603960037231445 -5.230440139770508 -19.664901733398438 -8.695789337158203 2.0321699480147914e-16 0.0 3.8825099822884138e-19 59.90650177001953 -43.15780258178711 52.215599060058594 172.364990234375 80.68231964111328 -172.82400512695312 8.72716999053955 -28.264705657958984 11.308099746704102
30.8128 57.0271 0.795578 -44.224998474121094 83.87300872802734 -45.86701583862305 -0.1593560129404068 35.05569839477539 -5.008230209350586 9.326379776000977 -12.818100929260254 -0.08493636548519135 -11.160099029541016 21.47110366821289 -17.717500686645508 17.39419937133789 -23.13319969177246 -31.538803100585938 -0.0 0.0 -0.0 -0.0 0.0 -0.0 -9.707240165770376e-14 6.999219454885408e-13 -3.9707200336991724e-14 34.813499450683594 -4.045650482177734 -9.805318832397461 -13.718101501464844 -6.7292304039001465 24.98859977722168 -0.1666630059480667 11.556800842285156 1.6468300819396973 1.7930699147683526e-09 -4.637979778010504e-09 1.8361998588289907e-09 3.1190796612179383e-09 -7.909370047798348e-09 3.15514991910959e-09 1.7930699147683526e-09 -4.637979778010504e-09 1.8361998588289907e-09 7.730909824371338 5.474879741668701 0.4173140823841095 1.7930699147683526e-09 -4.637979778010504e-09 1.8362099618585148e-09 2.9055399894714355 0.9651829600334167 0.10290199518203735 1.7930800177978767e-09 -4.637979778010504e-09 1.8362099618585148e-09 10.27859878540039 0.73180091381073 0.025912316516041756 1.7930598117388286e-09 -4.637979778010504e-09 1.836220064888039e-09 2.221669912338257 -0.733487069606781 -0.208919957280159 -9.694779972303086e-14 6.999219454885408e-13 -3.975689745407303e-14 -118.46099090576172 36.963199615478516 51.7073974609375 28.038297653198242 -40.207706451416016 -84.2947006225586 22.168598175048828 -73.922607421875 29.185394287109375 1.401219917873675e-09 -2.000599989490648e-12 -8.852019672822564e-10 2.4565001144338794e-09 -6.618099818167522e-11 -1.4276999582563121e-09 1.401219917873675e-09 -1.9969898130967056e-12 -8.851899768735905e-10 -7.730909824371338 5.474879741668701 -0.4173140823841095 1.401219917873675e-09 -1.998379760281832e-12 -8.852019672822564e-10 -2.9055399894714355 0.9651829600334167 -0.10290199518203735 1.401219917873675e-09 -1.9977899543e-12 -8.852060195962963e-10 -10.27859878540039 0.73180091381073 -0.025912316516041756 1.4012299098808967e-09 -1.995399939030973e-12 -8.852149013804933e-10 -2.221669912338257 -0.733487069606781 0.208919957280159 -2.0321699480147914e-16 0.0 -3.8825099822884138e-19 -35.145999908447266 -51.12440490722656 -14.343896865844727 -6.269290924072266 81.55158996582031 6.6256208419799805 -5.606489658355713 -20.10120391845703 -9.27669906616211 2.0321699480147914e-16 0.0 3.8825099822884138e-19 60.78619384765625 -41.29060363769531 53.39189529418945 172.54299926757812 80.46310424804688 -173.0389862060547 8.476839065551758 -28.470600128173828 10.829000473022461
